<?xml version="1.0" encoding="UTF-8" standalone="no"?>
<!DOCTYPE svg PUBLIC "-//W3C//DTD SVG 1.1//EN" "http://www.w3.org/Graphics/SVG/1.1/DTD/svg11.dtd">
<svg width="100%" height="100%" viewBox="0 0 100 70" version="1.1" xmlns="http://www.w3.org/2000/svg" xmlns:xlink="http://www.w3.org/1999/xlink" xml:space="preserve" xmlns:serif="http://www.serif.com/" style="fill-rule:evenodd;clip-rule:evenodd;stroke-linejoin:round;stroke-miterlimit:2;">
    <g transform="matrix(4.36857,0,0,4.36857,-47.2089,-246.8)">
        <g transform="matrix(14,0,0,14,10,70)">
            <path d="M0.075,-0L0.075,-0.716L0.219,-0.716L0.219,-0.398L0.511,-0.716L0.706,-0.716L0.436,-0.437L0.72,-0L0.533,-0L0.336,-0.336L0.219,-0.216L0.219,-0L0.075,-0Z" style="fill:rgb(23,160,149);fill-rule:nonzero;"/>
        </g>
        <g transform="matrix(14,0,0,14,20.1104,70)">
            <path d="M0.174,-0L0.003,-0.716L0.151,-0.716L0.259,-0.224L0.39,-0.716L0.562,-0.716L0.688,-0.216L0.797,-0.716L0.943,-0.716L0.769,-0L0.616,-0L0.473,-0.535L0.331,-0L0.174,-0Z" style="fill:rgb(23,160,149);fill-rule:nonzero;"/>
        </g>
    </g>
</svg>
